<svg width="65" height="64" viewBox="0 0 65 64" fill="none" xmlns="http://www.w3.org/2000/svg"><path fill-rule="evenodd" clip-rule="evenodd" d="M6.086 31.983c0-12.323 0-18.484 3.862-22.312s10.078-3.828 22.51-3.828c12.43 0 18.646 0 22.508 3.828s3.862 9.99 3.862 22.312 0 18.484-3.862 22.311c-3.862 3.829-10.078 3.829-22.509 3.829s-18.647 0-22.51-3.829c-3.861-3.827-3.861-9.989-3.861-22.311m26.371-15.03a1.97 1.97 0 0 1 1.978 1.96v13.564l4.535-4.494a1.99 1.99 0 0 1 2.797 0 1.95 1.95 0 0 1 0 2.772l-7.912 7.842a1.986 1.986 0 0 1-2.796 0l-7.912-7.842a1.95 1.95 0 0 1 0-2.772 1.99 1.99 0 0 1 2.797 0l4.535 4.494V18.914a1.97 1.97 0 0 1 1.978-1.96M21.91 43.092a1.97 1.97 0 0 0-1.978 1.96 1.97 1.97 0 0 0 1.978 1.96h21.097a1.97 1.97 0 0 0 1.977-1.96 1.97 1.97 0 0 0-1.977-1.96z" fill="#1C274C"/></svg>