<svg width="64" height="64" viewBox="0 0 64 64" fill="none" xmlns="http://www.w3.org/2000/svg"><g clip-path="url(#a)"><path d="M33.325 44.696a2.3 2.3 0 0 0-1.645-.698 2.3 2.3 0 0 0-1.645.698 2.6 2.6 0 0 0-.513.792 2.64 2.64 0 0 0 0 1.824c.127.292.3.56.513.792.215.216.469.387.747.504.288.126.597.191.91.192.382-.002.758-.1 1.094-.287s.623-.455.835-.782.343-.702.38-1.093a2.46 2.46 0 0 0-.163-1.15 2.2 2.2 0 0 0-.513-.792m17.335-20.04a3.2 3.2 0 0 0-.14-.648v-.216a2.6 2.6 0 0 0-.443-.672L36.078 8.72a2.5 2.5 0 0 0-.653-.456h-.21a2 2 0 0 0-.77-.264H20.329a6.9 6.9 0 0 0-4.949 2.109 7.3 7.3 0 0 0-2.05 5.091v33.6c0 1.91.737 3.74 2.05 5.091A6.9 6.9 0 0 0 20.33 56h23.33a6.9 6.9 0 0 0 4.95-2.109 7.3 7.3 0 0 0 2.05-5.091zm-13.999-8.472 6.043 6.216h-3.71a2.3 2.3 0 0 1-1.65-.703A2.44 2.44 0 0 1 36.662 20zM45.994 48.8c0 .637-.246 1.247-.684 1.697a2.3 2.3 0 0 1-1.65.703H20.33a2.3 2.3 0 0 1-1.65-.703 2.44 2.44 0 0 1-.684-1.697V15.2c0-.636.246-1.247.684-1.697a2.3 2.3 0 0 1 1.65-.703h11.665V20c0 1.91.737 3.74 2.05 5.091a6.9 6.9 0 0 0 4.95 2.109h6.999zM31.692 27.2a6.85 6.85 0 0 0-3.503.963 7.1 7.1 0 0 0-2.563 2.637 2.47 2.47 0 0 0 .102 2.727c.189.26.426.476.699.638a2.3 2.3 0 0 0 1.818.227 2.3 2.3 0 0 0 .827-.447c.243-.205.444-.458.59-.745a2.36 2.36 0 0 1 .858-.88 2.3 2.3 0 0 1 2.822.384c.437.449.683 1.06.683 1.696s-.246 1.247-.683 1.697a2.3 2.3 0 0 1-1.65.703 2.3 2.3 0 0 0-1.65.703 2.44 2.44 0 0 0-.683 1.697c0 .636.245 1.247.683 1.697s1.03.703 1.65.703a6.9 6.9 0 0 0 4.949-2.109 7.3 7.3 0 0 0 2.05-5.091c0-1.91-.737-3.74-2.05-5.091a6.9 6.9 0 0 0-4.95-2.109" fill="#000"/></g><defs><clipPath id="a"><path fill="#fff" d="M0 0h64v64H0z"/></clipPath></defs></svg>