<svg width="65" height="64" viewBox="0 0 65 64" fill="none" xmlns="http://www.w3.org/2000/svg"><g clip-path="url(#a)"><mask id="b" style="mask-type:luminance" maskUnits="userSpaceOnUse" x="1" y="1" width="64" height="63"><path d="M64.29 1H1v62.74h63.29z" fill="#fff"/></mask><g mask="url(#b)"><path d="M62.312 8.843v43.133c0 1.079-.89 1.96-1.978 1.96h-7.91v-37.25c0-1.078-.89-1.96-1.979-1.96h-7.91V6.881h17.8c1.087 0 1.977.882 1.977 1.96" fill="#668077"/><path d="M52.423 53.937v5.882c0 1.078-.89 1.96-1.978 1.96h-35.6a1.975 1.975 0 0 1-1.978-1.96V16.685c0-1.078.89-1.96 1.978-1.96h35.6c1.088 0 1.978.882 1.978 1.96z" fill="#FFE6EA"/><path d="M42.534 6.882v7.842h-27.69a1.975 1.975 0 0 0-1.977 1.961v33.33H4.956c-1.978 0-1.978-1.96-1.978-1.96V4.921c0-1.078.89-1.96 1.978-1.96h35.6c1.088 0 1.978.882 1.978 1.96z" fill="#FFC44D"/><path d="M24.734 26.488h5.933m-5.933 5.882h15.822m-15.822 7.843h15.822m-15.822 7.842h15.822m1.978-33.33V4.92c0-1.084-.884-1.96-1.978-1.96h-35.6a1.967 1.967 0 0 0-1.978 1.96v43.134s0 1.96 1.978 1.96h1.977m45.49 3.922h7.911a1.967 1.967 0 0 0 1.978-1.96V8.842a1.967 1.967 0 0 0-1.978-1.961H48.467m3.956 52.937c0 1.084-.884 1.96-1.978 1.96h-35.6a1.967 1.967 0 0 1-1.978-1.96V16.685c0-1.084.884-1.96 1.978-1.96h35.6c1.094 0 1.978.876 1.978 1.96z" stroke="#000" stroke-width="3" stroke-linecap="round" stroke-linejoin="round"/></g></g><defs><clipPath id="a"><path fill="#fff" d="M.812.615h63.291v62.736H.812z"/></clipPath></defs></svg>