<svg width="64" height="64" viewBox="0 0 64 64" fill="none" xmlns="http://www.w3.org/2000/svg"><path d="M50.667 24v23.467c0 2.987 0 4.48-.582 5.621a5.33 5.33 0 0 1-2.33 2.33C46.614 56 45.12 56 42.133 56H21.867c-2.987 0-4.48 0-5.622-.581a5.33 5.33 0 0 1-2.33-2.331c-.582-1.14-.582-2.634-.582-5.621V16.533c0-2.987 0-4.48.582-5.62a5.33 5.33 0 0 1 2.33-2.332C17.386 8 18.88 8 21.867 8h12.8m16 16-16-16m16 16H37.333a2.667 2.667 0 0 1-2.666-2.667V8" stroke="#000" stroke-width="4" stroke-linecap="round" stroke-linejoin="round"/></svg>