<svg width="65" height="64" viewBox="0 0 65 64" fill="none" xmlns="http://www.w3.org/2000/svg"><g clip-path="url(#a)"><path d="M57.722 24.944h-1.934a3.28 3.28 0 0 1-3.08-2.196 3.28 3.28 0 0 1 .655-3.736l1.344-1.344a3.28 3.28 0 0 0 0-4.655l-4.655-4.687a3.28 3.28 0 0 0-4.654 0L44.054 9.67a3.28 3.28 0 0 1-3.737.656 3.28 3.28 0 0 1-2.261-3.114V5.278A3.28 3.28 0 0 0 34.778 2h-6.556a3.28 3.28 0 0 0-3.278 3.278v1.934a3.28 3.28 0 0 1-2.196 3.08 3.28 3.28 0 0 1-3.736-.655l-1.344-1.344a3.28 3.28 0 0 0-4.655 0l-4.687 4.655a3.28 3.28 0 0 0 0 4.654l1.344 1.344a3.28 3.28 0 0 1 .656 3.737 3.28 3.28 0 0 1-3.082 2.196H5.278A3.28 3.28 0 0 0 2 28.157v6.555a3.28 3.28 0 0 0 3.278 3.278h1.934a3.28 3.28 0 0 1 3.08 2.196 3.28 3.28 0 0 1-.655 3.737l-1.344 1.344a3.28 3.28 0 0 0 0 4.654l4.622 4.622a3.28 3.28 0 0 0 4.654 0l1.344-1.344a3.28 3.28 0 0 1 3.737-.656 3.28 3.28 0 0 1 2.196 3.081v2.098A3.28 3.28 0 0 0 28.124 61h6.555a3.28 3.28 0 0 0 3.278-3.278v-1.934a3.28 3.28 0 0 1 2.196-3.08 3.28 3.28 0 0 1 3.737.655l1.344 1.344a3.277 3.277 0 0 0 4.654 0l4.622-4.622a3.277 3.277 0 0 0 0-4.654l-1.344-1.344a3.28 3.28 0 0 1-.655-3.737 3.28 3.28 0 0 1 3.08-2.196h2.131A3.28 3.28 0 0 0 61 34.876v-6.654a3.28 3.28 0 0 0-3.278-3.278M31.5 41.334a9.833 9.833 0 1 1 0-19.667 9.833 9.833 0 0 1 0 19.666" fill="#2CA9BC"/><path d="M41.333 31.5a9.833 9.833 0 1 1-19.667 0 9.833 9.833 0 0 1 19.667 0m16.39-6.556h-1.935a3.28 3.28 0 0 1-3.08-2.196 3.28 3.28 0 0 1 .655-3.736l1.344-1.344a3.28 3.28 0 0 0 0-4.655l-4.655-4.687a3.28 3.28 0 0 0-4.654 0L44.054 9.67a3.28 3.28 0 0 1-3.737.656 3.28 3.28 0 0 1-2.261-3.114V5.278A3.28 3.28 0 0 0 34.778 2h-6.556a3.28 3.28 0 0 0-3.278 3.278v1.934a3.28 3.28 0 0 1-2.196 3.08 3.28 3.28 0 0 1-3.736-.655l-1.344-1.344a3.28 3.28 0 0 0-4.655 0l-4.687 4.655a3.28 3.28 0 0 0 0 4.654l1.344 1.344a3.28 3.28 0 0 1 .656 3.737 3.28 3.28 0 0 1-3.082 2.196H5.278A3.28 3.28 0 0 0 2 28.157v6.555a3.28 3.28 0 0 0 3.278 3.278h1.934a3.28 3.28 0 0 1 3.08 2.196 3.28 3.28 0 0 1-.655 3.737l-1.344 1.344a3.28 3.28 0 0 0 0 4.654l4.622 4.622a3.28 3.28 0 0 0 4.654 0l1.344-1.344a3.28 3.28 0 0 1 3.737-.656 3.28 3.28 0 0 1 2.196 3.081v2.098A3.28 3.28 0 0 0 28.124 61h6.555a3.28 3.28 0 0 0 3.278-3.278v-1.934a3.28 3.28 0 0 1 2.196-3.08 3.28 3.28 0 0 1 3.737.655l1.344 1.344a3.277 3.277 0 0 0 4.654 0l4.622-4.622a3.277 3.277 0 0 0 0-4.654l-1.344-1.344a3.28 3.28 0 0 1-.655-3.737 3.28 3.28 0 0 1 3.08-2.196h2.131A3.28 3.28 0 0 0 61 34.876v-6.654a3.28 3.28 0 0 0-3.278-3.278" stroke="#000" stroke-width="3" stroke-linecap="round" stroke-linejoin="round"/></g><defs><clipPath id="a"><path fill="#fff" d="M.812.615h63.291v62.736H.812z"/></clipPath></defs></svg>