<svg width="65" height="64" viewBox="0 0 65 64" fill="none" xmlns="http://www.w3.org/2000/svg"><path fill-rule="evenodd" clip-rule="evenodd" d="M6.082 31.985c0-12.323 0-18.484 3.861-22.312s10.078-3.828 22.509-3.828c12.43 0 18.646 0 22.508 3.828s3.862 9.99 3.862 22.312 0 18.484-3.862 22.312-10.077 3.828-22.508 3.828-18.647 0-22.509-3.828c-3.861-3.828-3.861-9.99-3.861-22.312m26.37 15.03a1.97 1.97 0 0 0 1.977-1.96V31.49l4.535 4.495a1.99 1.99 0 0 0 2.797 0 1.95 1.95 0 0 0 0-2.772L33.85 25.37a1.986 1.986 0 0 0-2.797 0l-7.91 7.843a1.95 1.95 0 0 0 0 2.772 1.99 1.99 0 0 0 2.796 0l4.535-4.495v13.565a1.97 1.97 0 0 0 1.978 1.96m-10.548-26.14a1.97 1.97 0 0 1-1.978-1.96 1.97 1.97 0 0 1 1.978-1.96H43a1.97 1.97 0 0 1 1.977 1.96A1.97 1.97 0 0 1 43 20.875z" fill="#1C274C"/></svg>